<?xml version="1.0" standalone="no"?>
<!DOCTYPE svg PUBLIC "-//W3C//DTD SVG 20010904//EN"
 "http://www.w3.org/TR/2001/REC-SVG-20010904/DTD/svg10.dtd">
<svg version="1.0" xmlns="http://www.w3.org/2000/svg"
 width="1117.000000pt" height="1117.000000pt" viewBox="0 0 1117.000000 1117.000000"
 preserveAspectRatio="xMidYMid meet">
<metadata>
Created by potrace 1.11, written by Peter Selinger 2001-2013
</metadata>
<g transform="translate(0.000000,1117.000000) scale(0.100000,-0.100000)"
fill="#000000" stroke="none">
<path d="M5268 10855 c-1 -1 -41 -6 -88 -9 -47 -4 -98 -8 -115 -11 -16 -2 -66
-9 -110 -15 -44 -6 -114 -17 -155 -25 -41 -8 -91 -17 -110 -20 -19 -3 -51 -10
-70 -15 -19 -5 -51 -12 -70 -15 -127 -21 -625 -178 -830 -262 -374 -153 -617
-282 -949 -501 -627 -415 -1187 -1012 -1566 -1672 -77 -134 -207 -385 -263
-510 -70 -155 -238 -639 -267 -770 -2 -8 -15 -62 -28 -120 -32 -134 -46 -204
-61 -300 -3 -19 -10 -57 -15 -85 -5 -27 -13 -77 -16 -110 -4 -33 -9 -69 -11
-80 -2 -11 -7 -47 -10 -80 -3 -33 -7 -71 -9 -84 -23 -140 -23 -792 0 -921 2
-14 6 -52 9 -85 9 -93 21 -184 42 -310 17 -101 59 -309 75 -370 6 -22 13 -50
15 -63 10 -55 96 -338 138 -457 98 -274 261 -633 382 -840 25 -44 57 -100 71
-125 86 -153 310 -468 468 -660 208 -253 474 -521 725 -730 160 -134 509 -384
620 -446 19 -10 63 -38 97 -62 34 -23 66 -42 72 -42 5 0 11 -3 13 -8 7 -17
296 -182 468 -267 63 -31 123 -61 132 -66 80 -42 412 -156 608 -208 115 -30
326 -74 410 -86 25 -3 52 -8 60 -10 8 -3 35 -7 60 -10 25 -3 55 -7 67 -9 12
-3 53 -8 90 -11 37 -4 76 -9 86 -11 103 -19 685 -26 907 -11 553 38 1072 160
1590 374 328 136 614 289 919 492 79 53 160 107 180 120 20 13 38 27 41 30 3
4 34 29 70 56 60 45 210 166 236 190 6 5 43 39 83 74 94 84 234 223 343 341
48 52 96 104 106 115 105 111 284 354 385 523 62 102 197 374 197 395 0 7 4
17 8 23 25 28 109 283 152 459 29 122 35 151 46 240 4 28 14 96 24 153 38 224
17 359 -43 277 -9 -13 -49 -104 -88 -202 -156 -390 -331 -713 -530 -978 -158
-211 -298 -324 -192 -157 21 33 72 114 113 179 72 113 75 120 74 175 -1 32 4
86 12 121 7 35 15 75 18 88 3 13 7 33 10 44 36 153 46 195 50 215 2 14 23 95
46 180 82 310 134 551 155 715 4 28 8 61 10 75 2 14 7 57 11 95 4 39 8 84 10
100 10 94 19 290 18 425 0 148 -11 377 -19 389 -1 3 -6 31 -10 61 -11 90 -24
132 -42 128 -22 -4 -47 -74 -113 -318 -135 -496 -240 -780 -427 -1155 -108
-216 -259 -475 -315 -539 -44 -50 -60 -42 -58 28 3 91 0 126 -9 126 -5 0 -13
-10 -17 -22 -29 -98 -374 -578 -530 -738 -130 -134 -156 -160 -245 -240 -52
-47 -119 -106 -149 -130 -30 -25 -57 -47 -60 -51 -3 -3 -36 -30 -75 -60 -145
-114 -407 -285 -593 -385 -157 -85 -309 -163 -332 -169 -14 -4 -47 -17 -75
-30 -56 -25 -164 -62 -363 -125 -72 -23 -135 -46 -138 -52 -3 -5 -11 -5 -19 2
-9 7 -20 8 -32 2 -27 -14 -172 -51 -218 -56 -75 -8 -350 -36 -407 -41 -53 -5
-57 -4 -53 15 4 20 1 20 -53 13 -124 -17 -447 -5 -580 21 -15 3 -51 8 -81 11
-30 4 -63 9 -75 11 -12 2 -76 14 -144 26 -109 19 -123 23 -119 39 4 15 -6 22
-51 35 -238 70 -284 90 -275 122 3 14 -27 29 -159 81 -194 76 -260 106 -284
130 -17 16 -20 16 -30 2 -11 -14 -22 -10 -95 28 -147 77 -481 298 -524 347 -5
6 -19 17 -31 25 -26 17 -181 159 -266 243 -253 251 -470 558 -647 913 -116
233 -238 533 -226 554 11 17 49 27 68 17 10 -5 15 -14 11 -19 -3 -6 14 5 40
24 47 37 62 39 142 18 37 -10 52 -2 122 59 28 25 60 45 70 45 20 0 89 51 137
102 17 17 43 35 59 39 37 9 81 47 96 85 7 16 34 43 63 61 29 18 66 47 85 65
30 30 158 123 167 123 3 0 5 -11 5 -25 0 -25 0 -25 26 -8 l27 17 -27 9 c-21 7
-26 15 -26 40 0 18 5 39 10 47 9 13 12 13 21 -3 10 -16 13 -15 49 13 23 19 44
28 54 24 21 -8 90 61 82 81 -3 8 -1 15 4 15 6 0 10 -7 10 -16 0 -11 6 -14 23
-8 31 9 31 9 12 37 -16 25 -16 25 33 48 47 23 60 40 77 97 6 22 8 22 24 8 23
-21 33 -20 54 4 22 26 22 33 -1 21 -11 -6 -24 -6 -32 -1 -11 7 -9 13 13 30 15
12 27 31 28 43 0 18 2 20 11 7 8 -13 27 -7 129 45 98 50 159 88 195 124 3 3 9
-1 14 -9 7 -12 12 -12 28 3 25 22 39 22 47 -3 5 -14 15 -20 37 -20 25 0 29 -3
25 -20 -3 -11 -1 -20 3 -20 5 0 10 7 12 16 5 27 48 -15 54 -54 6 -36 51 -108
65 -105 14 4 30 -35 23 -61 -3 -13 -1 -27 5 -30 7 -5 11 2 11 16 0 33 17 4 25
-43 4 -20 17 -47 31 -60 13 -12 24 -19 24 -15 0 3 23 -17 50 -45 46 -47 58
-79 31 -79 -6 0 12 -37 39 -81 27 -45 47 -87 43 -93 -4 -6 -8 -40 -9 -76 -1
-36 -9 -83 -17 -105 -13 -36 -13 -44 1 -70 19 -38 71 -105 80 -104 21 3 32 -5
57 -41 22 -31 31 -38 41 -29 11 9 15 7 20 -4 3 -9 14 -19 25 -22 12 -4 19 -16
19 -30 0 -14 9 -29 20 -35 11 -6 20 -18 20 -26 0 -10 6 -13 18 -10 22 7 31 0
62 -46 15 -22 41 -44 65 -54 64 -26 70 -30 73 -51 2 -11 20 -29 40 -40 118
-66 108 -63 125 -46 14 14 14 18 1 39 -15 22 -14 24 15 38 29 16 30 15 53 -16
l22 -32 7 24 6 25 13 -27 c12 -26 14 -26 41 -13 21 11 27 22 27 43 -1 15 4 37
11 49 6 12 11 26 11 31 0 12 -127 160 -200 232 -54 54 -129 159 -170 238 -12
22 -29 47 -40 57 -11 10 -26 41 -35 70 -8 29 -21 58 -29 64 -9 8 -15 32 -15
64 0 29 -3 67 -5 85 -3 18 -8 52 -11 75 -4 23 -15 57 -26 75 -14 25 -21 59
-24 125 -2 51 -8 112 -13 137 -12 64 -6 172 14 242 3 10 -3 21 -15 27 -19 11
-20 7 -21 -132 -1 -78 -2 -149 -1 -157 0 -8 -2 -30 -5 -47 -4 -27 -9 -33 -30
-33 -21 0 -29 9 -49 55 -18 40 -22 61 -16 77 9 22 9 22 16 3 3 -11 13 -33 20
-50 11 -24 14 -26 15 -10 1 11 3 29 5 40 2 11 7 45 10 75 3 30 8 67 11 83 3
16 1 27 -5 27 -6 0 -11 -6 -11 -12 0 -7 -9 0 -20 17 -19 29 -19 29 1 62 11 18
18 34 15 34 -3 1 -10 3 -16 4 -5 1 -14 3 -19 4 -11 1 -20 24 -26 65 -4 23 1
39 19 61 21 26 25 28 41 15 16 -14 17 -13 10 10 -11 36 -12 36 -45 5 -24 -23
-30 -25 -30 -12 0 23 -15 22 -17 0 -1 -10 -4 -31 -8 -48 -3 -16 -8 -43 -11
-60 -3 -16 -9 -34 -14 -40 -4 -5 -6 -21 -5 -35 1 -14 -8 -54 -21 -90 -13 -36
-26 -84 -30 -105 -3 -22 -17 -52 -30 -68 -13 -16 -22 -33 -18 -38 11 -18 -21
-9 -58 17 -23 16 -42 40 -49 63 -7 20 -44 87 -82 150 l-71 114 25 20 c13 10
43 36 66 57 24 21 63 51 88 67 37 23 45 32 40 50 -5 20 -1 23 37 29 35 6 55
19 108 71 36 35 126 107 200 160 74 54 174 137 222 185 48 48 93 88 102 88 13
0 146 124 146 136 0 3 -10 2 -22 -1 -13 -4 22 36 82 91 172 163 364 356 395
399 17 22 37 48 45 57 29 32 107 173 128 229 54 146 -12 362 -162 527 -90 100
-219 222 -281 267 -133 95 -296 151 -363 124 -29 -12 -31 -16 -20 -31 7 -9 30
-19 51 -22 154 -23 469 -304 578 -515 31 -60 38 -179 15 -249 -36 -107 -167
-268 -279 -342 -57 -37 -99 -73 -227 -188 -25 -23 -58 -44 -73 -48 -16 -3 -36
-18 -45 -33 -9 -15 -23 -26 -29 -24 -7 3 -13 -2 -13 -10 0 -9 -82 -71 -187
-141 -142 -95 -190 -123 -200 -114 -10 8 -13 7 -13 -5 0 -37 -245 -232 -260
-207 -11 18 -49 3 -44 -18 5 -18 -40 -52 -86 -67 -14 -4 -39 -20 -57 -35 -17
-15 -49 -33 -70 -40 -21 -7 -55 -26 -76 -43 -32 -25 -41 -28 -48 -16 -56 84
-118 211 -122 246 -2 25 -15 56 -31 78 -15 19 -29 51 -31 71 -1 19 -12 45 -24
58 -16 17 -21 38 -24 96 -5 84 -39 218 -68 269 -11 19 -18 40 -15 47 3 8 -3
22 -13 31 -13 13 -20 40 -25 96 -4 43 -13 98 -21 122 -15 42 -15 44 24 128 26
57 50 92 72 110 49 36 138 78 158 75 10 -2 29 3 42 9 13 7 36 17 50 22 25 9
26 14 26 66 l-1 55 -76 42 c-41 22 -89 51 -105 64 -20 15 -41 22 -60 20 -50
-5 -153 32 -258 92 -34 20 -65 31 -76 27 -12 -3 -30 5 -52 25 -67 61 -75 64
-98 41 -12 -12 -27 -21 -35 -21 -7 0 -17 -10 -20 -22 -6 -21 -7 -22 -20 -6
-11 15 -15 6 -26 -70 -8 -48 -14 -103 -16 -123 -1 -20 -7 -52 -13 -72 -13 -39
-9 -79 20 -205 10 -45 19 -90 19 -100 0 -20 -92 -86 -111 -80 -7 2 -126 -52
-264 -122 -137 -69 -295 -145 -350 -169 -55 -24 -147 -66 -205 -93 -130 -62
-170 -79 -170 -74 0 13 99 248 147 346 57 120 174 326 250 443 90 139 111 214
46 172 -26 -18 -26 -17 7 26 87 112 168 204 319 358 86 89 146 160 185 219 26
38 68 80 151 150 97 83 458 332 481 332 3 0 18 8 32 19 44 31 257 135 397 193
173 73 457 165 585 191 14 3 58 12 97 21 40 8 87 18 105 21 18 3 58 10 88 15
30 5 80 12 110 16 30 3 66 7 80 10 14 2 81 7 150 11 366 20 761 -10 1065 -83
11 -3 31 -7 45 -10 14 -3 50 -12 80 -20 30 -8 64 -17 75 -19 42 -9 294 -94
382 -129 548 -215 1040 -555 1453 -1003 67 -73 77 -84 146 -168 429 -525 718
-1158 843 -1850 27 -151 28 -159 51 -390 6 -60 7 -41 4 75 -2 85 -7 182 -10
215 -6 69 -31 250 -37 280 -3 11 -8 42 -11 69 -4 27 -9 52 -11 55 -1 3 -6 22
-9 41 -9 57 -54 216 -97 350 -63 190 -153 392 -257 572 -12 22 -17 40 -12 43
34 21 -7 113 -139 312 -112 169 -196 278 -336 438 -152 174 -383 388 -557 517
-29 21 -62 46 -73 55 -35 29 -328 218 -410 265 -176 100 -404 210 -679 328
-414 176 -550 223 -767 265 l-74 14 65 -5 c36 -3 74 -7 85 -9 11 -3 36 -7 55
-10 53 -7 94 -15 108 -20 13 -5 14 -3 16 34 1 25 -19 32 -162 56 -83 14 -235
33 -337 43 -103 9 -614 9 -726 0 -98 -9 -364 -45 -424 -58 -22 -5 -56 -12 -75
-15 -171 -29 -648 -174 -742 -226 -27 -14 -35 -11 -42 15 -6 23 -8 24 -38 14
-17 -6 -101 -46 -186 -89 -196 -100 -254 -106 -159 -18 149 140 598 349 987
459 170 49 429 102 552 115 24 3 68 8 98 11 266 32 721 36 960 9 153 -17 150
-17 150 2 0 10 3 28 6 39 5 20 1 23 -48 29 -71 10 -96 13 -213 21 -55 4 -107
8 -115 10 -8 1 -21 3 -27 3 -7 1 -13 9 -13 20 0 20 14 20 190 6 129 -11 137
-12 395 -50 22 -3 48 -8 57 -11 10 -3 30 -7 45 -10 147 -26 442 -107 626 -172
411 -146 904 -411 1229 -662 l26 -20 -5 22 c-3 13 -13 32 -22 43 -19 23 -12
19 64 -40 287 -225 561 -495 777 -765 290 -365 495 -703 732 -1207 40 -86 70
-111 60 -50 -20 117 -79 309 -132 427 -100 226 -173 356 -327 585 -71 105
-240 333 -265 355 -3 3 -32 37 -65 75 -138 162 -380 402 -533 530 -26 22 -30
30 -21 41 16 19 72 -28 290 -246 238 -238 464 -511 673 -817 118 -172 123
-167 31 25 -36 74 -65 137 -65 139 0 21 129 -167 244 -354 42 -68 57 -83 30
-30 -48 92 -325 514 -353 537 -4 3 -22 25 -41 50 -223 292 -572 636 -1038
1026 -13 10 -36 30 -51 44 -15 14 -48 44 -73 67 -25 23 -57 57 -72 75 -55 73
-547 322 -936 475 -316 125 -575 200 -990 288 -84 18 -433 83 -480 90 -53 8
-151 24 -190 31 -35 7 -475 15 -482 9z m-1812 -3512 c28 -49 52 -100 52 -115
2 -27 36 -107 85 -198 13 -25 29 -56 35 -70 5 -14 22 -52 38 -85 15 -33 29
-71 30 -84 5 -42 13 -56 26 -43 9 9 17 -2 35 -45 13 -32 25 -69 28 -82 2 -14
13 -32 24 -41 13 -10 22 -33 27 -67 5 -41 10 -53 24 -53 21 0 33 -23 19 -37
-6 -6 -4 -20 5 -38 19 -36 6 -64 -33 -71 -22 -5 -28 -12 -28 -30 0 -30 -25
-67 -62 -95 -17 -12 -27 -28 -24 -35 7 -18 -24 -29 -41 -15 -10 8 -17 6 -30
-8 -17 -18 -16 -20 3 -26 21 -6 30 -35 11 -35 -6 0 -15 -12 -21 -27 l-11 -28
-18 23 c-11 13 -16 30 -13 37 8 22 -11 18 -32 -5 -13 -15 -15 -20 -4 -20 20 0
-21 -26 -72 -46 -38 -14 -118 -86 -119 -106 0 -14 -58 -25 -109 -21 -45 4 -57
1 -77 -18 -33 -31 -10 -44 27 -17 15 11 32 17 38 14 14 -9 15 -56 1 -56 -5 0
-10 5 -10 10 0 6 -7 10 -15 10 -17 0 -76 -28 -85 -40 -3 -3 -20 -15 -37 -25
-18 -11 -33 -26 -33 -33 0 -8 -9 -25 -20 -39 -11 -14 -20 -32 -20 -40 0 -8 -5
-11 -11 -8 -29 18 -89 -27 -181 -135 -32 -37 -38 -40 -38 -22 0 12 -2 22 -4
22 -2 0 -95 -37 -156 -63 -2 -1 -3 -10 -2 -19 4 -20 -9 -23 -25 -7 -8 8 -28 2
-72 -21 -49 -26 -61 -37 -61 -56 0 -14 -10 -30 -25 -40 -24 -16 -26 -16 -50
10 -27 29 -45 34 -45 11 0 -20 -30 -32 -40 -16 -5 9 -20 4 -53 -19 -58 -39
-134 -73 -147 -65 -5 3 -20 -1 -33 -10 -18 -11 -24 -12 -24 -3 -1 7 -6 49 -12
93 -23 177 -34 346 -34 525 0 214 21 499 47 637 3 12 8 42 11 67 4 25 9 46 12
46 3 0 14 -12 25 -26 30 -37 58 -45 82 -23 12 12 29 17 50 14 122 -16 142 -16
156 0 11 13 11 25 1 65 -12 45 -11 52 7 77 25 34 107 113 222 213 47 41 106
96 133 122 26 26 55 48 65 48 25 0 42 19 42 47 0 20 3 22 18 12 15 -9 23 -6
49 20 17 17 38 31 47 31 8 0 41 24 73 54 32 29 72 60 88 69 17 8 37 27 45 41
15 29 30 34 30 10 0 -10 8 -6 25 14 17 21 31 28 45 25 14 -4 20 0 20 12 0 12
5 15 19 10 11 -3 25 0 33 9 7 8 15 15 18 16 3 0 28 -39 56 -87z m464 -274 c0
-5 -7 -9 -15 -9 -9 0 -12 6 -9 15 6 15 24 11 24 -6z m930 -1101 c0 -16 -3 -19
-11 -11 -6 6 -8 16 -5 22 11 17 16 13 16 -11z m20 -120 c0 -33 -15 -36 -30 -8
-14 25 6 72 21 49 5 -8 9 -26 9 -41z m-100 -99 c0 -11 -4 -17 -10 -14 -5 3
-10 13 -10 21 0 8 5 14 10 14 6 0 10 -9 10 -21z m-1544 -180 c-28 -60 -36 -69
-36 -42 0 11 -7 26 -15 33 -22 18 -19 26 18 44 53 26 58 21 33 -35z m-96 -35
c6 -14 10 -29 10 -33 0 -14 -69 -62 -94 -67 -20 -3 -23 0 -19 20 3 13 -1 27
-8 31 -9 6 -11 -2 -7 -33 7 -50 -6 -65 -51 -56 -31 7 -39 18 -21 29 15 9 -12
45 -35 45 -13 0 -3 9 27 25 57 30 84 32 98 5 13 -23 28 -25 54 -5 15 11 16 18
8 28 -9 10 -9 16 0 25 18 18 28 15 38 -14z m1780 -68 c0 -8 -4 -18 -10 -21 -5
-3 -10 3 -10 14 0 12 5 21 10 21 6 0 10 -6 10 -14z m-1680 -56 c0 -5 -4 -10
-10 -10 -5 0 -10 5 -10 10 0 6 5 10 10 10 6 0 10 -4 10 -10z m-82 -98 c2 -24
-3 -29 -38 -40 -58 -18 -63 -16 -44 18 13 21 21 26 30 19 9 -7 14 -4 19 10 9
30 30 26 33 -7z m-243 8 c3 -5 1 -10 -5 -10 -6 0 -40 -13 -75 -30 -35 -16 -69
-30 -75 -30 -15 0 -41 -26 -33 -34 4 -3 16 -6 27 -7 13 0 2 -9 -31 -24 -29
-13 -54 -32 -58 -43 -3 -13 -12 -19 -20 -15 -9 3 -21 -6 -32 -26 -17 -28 -96
-81 -122 -81 -24 0 -9 27 27 47 49 28 79 61 127 140 22 36 45 66 50 65 6 0 16
5 23 10 9 8 16 8 24 0 8 -8 19 -6 42 6 70 37 120 50 131 32z m-454 -103 c-8
-8 -14 -8 -23 1 -9 9 -7 17 8 33 l19 21 3 -22 c2 -12 -1 -27 -7 -33z m164 33
c8 -13 -13 -40 -31 -40 -17 0 -18 22 -2 38 15 15 25 15 33 2z m335 -15 c-7 -8
-17 -15 -22 -15 -6 0 -5 7 2 15 7 8 17 15 22 15 6 0 5 -7 -2 -15z m-429 -48
c-8 -8 -11 -7 -11 4 0 20 13 34 18 19 3 -7 -1 -17 -7 -23z m-386 -27 c-3 -5
-16 -15 -28 -21 -22 -12 -22 -12 -3 10 19 21 43 30 31 11z m871 -45 c-25 -19
-36 -19 -36 0 0 10 10 15 28 15 26 -1 26 -1 8 -15z m-257 -22 c3 -2 -2 -10
-11 -19 -13 -14 -17 -13 -32 11 l-17 26 28 -7 c15 -4 30 -9 32 -11z m-566 -23
c-5 -20 -23 -38 -23 -23 1 22 13 52 20 48 5 -3 6 -14 3 -25z m282 11 c-3 -6
-11 -11 -17 -11 -6 0 -6 6 2 15 14 17 26 13 15 -4z m-313 -93 c-7 -7 -12 -8
-12 -2 0 14 12 26 19 19 2 -3 -1 -11 -7 -17z m193 -48 c3 -5 2 -10 -4 -10 -5
0 -13 5 -16 10 -3 6 -2 10 4 10 5 0 13 -4 16 -10z m520 -41 c-10 -15 -25 -10
-19 6 4 8 10 12 15 9 5 -3 7 -10 4 -15z m45 -4 c-7 -8 -17 -12 -23 -8 -6 4 -3
11 8 19 23 17 32 10 15 -11z m-72 -50 c-3 -3 -20 -10 -37 -15 -39 -11 -39 8 0
27 22 11 51 2 37 -12z"/>
<path d="M2315 5389 c-11 -17 1 -21 15 -4 8 9 8 15 2 15 -6 0 -14 -5 -17 -11z"/>
<path d="M2185 5309 c-11 -17 1 -21 15 -4 8 9 8 15 2 15 -6 0 -14 -5 -17 -11z"/>
<path d="M8530 9417 c0 -3 18 -20 40 -37 22 -17 40 -29 40 -27 0 3 -18 20 -40
37 -22 17 -40 29 -40 27z"/>
<path d="M8635 9330 c10 -11 20 -20 23 -20 3 0 -3 9 -13 20 -10 11 -20 20 -23
20 -3 0 3 -9 13 -20z"/>
<path d="M8685 9290 c10 -11 20 -20 23 -20 3 0 -3 9 -13 20 -10 11 -20 20 -23
20 -3 0 3 -9 13 -20z"/>
<path d="M8790 9195 c13 -14 26 -25 28 -25 3 0 -5 11 -18 25 -13 14 -26 25
-28 25 -3 0 5 -11 18 -25z"/>
<path d="M8830 9156 c0 -2 7 -7 16 -10 8 -3 12 -2 9 4 -6 10 -25 14 -25 6z"/>
<path d="M8900 9095 c19 -19 36 -35 39 -35 3 0 -10 16 -29 35 -19 19 -36 35
-39 35 -3 0 10 -16 29 -35z"/>
<path d="M8950 9046 c0 -2 8 -10 18 -17 15 -13 16 -12 3 4 -13 16 -21 21 -21
13z"/>
<path d="M9990 8111 c0 -5 7 -15 17 -22 15 -13 15 -12 4 9 -12 23 -21 28 -21
13z"/>
<path d="M6688 7315 c-2 -2 -19 -5 -38 -7 -26 -3 -36 -9 -38 -25 -4 -27 -186
-147 -209 -139 -12 5 -6 16 26 51 80 87 39 63 -54 -31 -22 -23 -65 -54 -95
-69 -30 -15 -65 -38 -76 -51 -12 -13 -50 -56 -85 -95 -35 -40 -65 -77 -65 -83
-1 -6 -2 -21 -3 -33 -1 -13 -14 -29 -36 -42 -19 -11 -35 -25 -35 -31 0 -7 -19
-37 -43 -68 -58 -77 -73 -103 -161 -278 -108 -219 -122 -278 -120 -544 1 -184
5 -228 30 -325 9 -33 18 -70 20 -82 8 -43 87 -268 109 -313 35 -69 132 -197
154 -203 12 -3 30 3 42 14 29 25 41 12 30 -29 -9 -30 -6 -34 54 -91 67 -62
168 -118 265 -145 30 -9 67 -26 82 -39 15 -13 45 -30 68 -37 36 -12 45 -11 76
4 33 15 38 15 58 1 11 -8 30 -21 41 -29 35 -25 111 -27 167 -6 44 17 55 17 88
6 35 -12 43 -10 173 43 121 50 136 59 144 85 4 16 16 30 26 32 9 1 15 -2 11
-7 -8 -13 0 -12 85 12 42 12 81 22 86 23 13 2 15 16 4 44 -8 20 -14 22 -46 18
-21 -3 -69 -16 -108 -29 -62 -22 -71 -23 -82 -10 -9 11 -22 14 -47 9 -33 -6
-51 -26 -24 -26 6 0 3 -9 -7 -20 -14 -15 -21 -17 -32 -9 -7 6 -13 18 -13 25 0
10 -6 11 -24 4 -13 -5 -55 -7 -92 -4 -38 2 -109 6 -159 8 -141 6 -221 31 -350
109 -10 7 -47 29 -80 49 -46 28 -75 57 -118 115 -66 93 -117 196 -110 223 5
19 9 18 52 -15 266 -202 308 -213 458 -113 104 69 121 86 134 138 7 28 16 45
19 39 7 -10 117 116 237 271 68 87 123 180 123 208 0 12 24 62 54 110 29 48
57 98 61 112 3 14 19 50 35 81 30 57 85 211 94 264 3 17 8 39 10 50 3 18 12
70 21 135 9 55 16 142 20 222 2 45 8 94 13 108 29 76 -27 151 -165 222 -29 14
-67 36 -84 48 -24 18 -194 96 -194 90 0 -1 -7 1 -15 4 -93 32 -169 43 -217 32
-20 -5 -40 -3 -55 5 -21 11 -83 21 -90 14z m472 -350 c40 -34 56 -54 52 -67
-5 -21 -22 -24 -22 -4 0 7 -7 19 -15 26 -24 20 -20 -36 5 -67 11 -14 20 -32
20 -39 0 -7 -31 -91 -70 -186 -71 -175 -80 -213 -57 -237 10 -11 7 -12 -15 -7
-26 6 -28 4 -28 -23 0 -24 -4 -28 -19 -24 -15 4 -21 -2 -26 -29 -4 -18 -26
-60 -50 -93 -23 -33 -77 -112 -121 -175 -93 -136 -74 -110 -179 -244 -120
-151 -158 -189 -218 -219 -28 -14 -79 -46 -112 -71 -33 -25 -74 -53 -92 -61
-18 -9 -39 -25 -46 -36 -15 -21 -16 -16 -45 136 -9 51 0 212 14 236 6 11 6
105 -1 122 -5 13 -2 17 13 17 18 0 19 7 18 71 -1 64 1 72 24 89 19 15 22 22
12 28 -10 7 -6 27 19 95 17 48 42 103 55 123 14 20 23 38 20 41 -2 2 17 33 42
67 26 35 89 122 141 194 51 73 119 157 149 188 54 55 56 56 100 50 39 -5 46
-3 65 20 27 35 256 135 296 129 8 -1 40 -23 71 -50z m-1263 -1840 c-4 -8 -11
-15 -17 -15 -7 0 -7 6 0 21 13 23 26 19 17 -6z m739 -422 c-8 -8 -36 5 -36 17
0 7 6 7 21 0 11 -7 18 -14 15 -17z"/>
<path d="M6554 7295 c-19 -14 -18 -14 4 -15 13 0 22 6 22 15 0 19 -1 19 -26 0z"/>
<path d="M8788 7261 c-29 -28 -53 -57 -54 -63 -1 -7 -4 -44 -8 -82 -5 -62 -12
-78 -67 -165 -69 -108 -212 -300 -257 -346 -17 -17 -35 -49 -41 -73 -7 -24
-22 -49 -37 -59 -51 -37 -73 -61 -159 -168 -48 -60 -91 -111 -95 -113 -12 -5
-11 97 2 143 15 59 23 339 13 487 -4 72 7 124 35 153 l21 23 -29 65 -30 64
-48 -1 c-27 -1 -61 2 -76 6 -21 5 -28 3 -28 -8 0 -7 -12 -16 -27 -20 -16 -3
-35 -8 -43 -10 -9 -2 -30 0 -48 5 -26 8 -43 5 -87 -15 -30 -14 -55 -31 -56
-37 0 -7 0 -55 1 -107 1 -52 3 -162 4 -245 2 -82 6 -158 10 -167 5 -10 3 -40
-4 -67 -18 -76 -20 -143 -24 -721 -4 -454 -7 -542 -20 -578 -17 -46 -13 -98 9
-142 7 -14 9 -34 5 -45 -15 -42 -5 -87 26 -109 16 -11 45 -35 64 -52 19 -17
58 -39 87 -48 28 -10 63 -26 77 -37 27 -21 56 -16 56 10 0 9 5 22 12 29 15 15
70 16 84 2 6 -6 18 -8 27 -5 26 11 34 55 22 130 -9 64 -7 83 22 225 18 85 35
173 38 195 4 22 12 47 20 55 13 16 20 43 30 120 19 141 53 287 76 315 4 6 10
29 13 51 13 109 130 351 240 494 62 81 119 153 127 160 3 3 33 46 68 97 34 50
69 94 77 97 28 11 41 -48 42 -182 1 -113 3 -126 22 -139 18 -13 20 -25 20
-112 0 -53 -5 -102 -10 -107 -7 -7 -6 -38 5 -100 17 -96 18 -257 3 -329 -8
-39 -7 -49 12 -74 22 -32 27 -66 35 -234 2 -60 7 -113 11 -118 6 -11 6 -96 0
-159 -5 -44 0 -53 23 -40 24 12 33 2 20 -22 -6 -10 -11 -36 -11 -57 0 -48 84
-293 110 -319 11 -11 23 -38 27 -59 5 -31 20 -53 64 -97 l58 -57 65 -1 c36 -1
70 2 75 5 6 4 14 21 18 39 4 18 9 40 11 48 10 40 1 181 -21 355 -2 17 -6 66
-10 110 -3 44 -8 96 -10 115 -20 161 -27 446 -13 518 4 20 1 43 -7 58 -11 22
-11 32 2 62 14 34 14 147 -1 170 -12 20 -17 213 -6 253 8 27 8 45 2 51 -7 7
-5 22 4 45 12 27 15 91 16 286 1 139 -2 277 -5 307 -4 30 -9 93 -12 140 -4 47
-8 95 -10 107 -6 35 -55 90 -97 109 -33 15 -44 15 -77 4 -21 -7 -47 -10 -57
-7 -10 4 -41 9 -69 12 -27 3 -59 8 -70 10 -11 2 -46 7 -78 10 l-57 6 -52 -50z
m538 -2308 c-10 -10 -19 5 -10 18 6 11 8 11 12 0 2 -7 1 -15 -2 -18z m-80
-120 c-11 -11 -19 6 -11 24 8 17 8 17 12 0 3 -10 2 -21 -1 -24z"/>
<path d="M4890 6301 c0 -12 5 -21 10 -21 6 0 10 6 10 14 0 8 -4 18 -10 21 -5
3 -10 -3 -10 -14z"/>
<path d="M9422 6238 c-10 -53 -10 -72 0 -95 12 -28 13 -28 16 20 2 26 2 68 0
95 l-3 47 -13 -67z"/>
<path d="M4850 6253 c0 -8 -4 -11 -10 -8 -5 3 -10 2 -10 -4 0 -18 19 -22 40
-9 25 16 25 24 0 31 -13 3 -20 0 -20 -10z"/>
<path d="M4930 6201 c-6 -12 -8 -27 -4 -33 5 -8 11 -1 16 17 9 36 3 44 -12 16z"/>
<path d="M4925 6128 c-15 -58 -9 -98 14 -98 5 0 8 8 7 18 -2 9 1 30 7 45 7 22
6 32 -6 44 -14 15 -16 14 -22 -9z"/>
<path d="M3914 5588 l-16 -31 30 24 c34 27 40 39 17 39 -8 0 -22 -14 -31 -32z"/>
<path d="M3807 5513 c-15 -14 -6 -19 28 -15 19 2 32 8 29 13 -6 10 -48 12 -57
2z"/>
<path d="M3725 5431 c-3 -5 -1 -12 4 -15 5 -3 11 1 15 9 6 16 -9 21 -19 6z"/>
<path d="M3779 4026 c-4 -4 -19 -9 -34 -12 -47 -8 -128 -77 -160 -135 -30 -53
-30 -56 -33 -231 -4 -207 5 -249 70 -323 54 -62 135 -99 213 -99 70 0 154 35
204 86 56 56 82 125 85 226 3 109 0 119 -33 129 -41 14 -257 9 -275 -6 -37
-31 -5 -83 48 -81 17 1 62 2 100 1 l68 -1 -4 -69 c-4 -80 -29 -124 -91 -165
-34 -22 -49 -25 -108 -22 -59 2 -74 6 -106 32 -21 17 -48 50 -60 74 -21 40
-23 56 -21 199 1 86 6 169 11 184 15 45 80 103 129 115 71 18 153 -1 187 -42
21 -25 66 -20 79 8 15 33 -13 68 -81 103 -50 25 -173 44 -188 29z"/>
<path d="M6008 4018 c-25 -21 -28 -45 -7 -71 15 -21 24 -24 47 -18 38 10 52
53 27 81 -21 23 -44 26 -67 8z"/>
<path d="M4437 3786 c-59 -22 -113 -62 -145 -108 -37 -55 -48 -90 -51 -158 -8
-206 208 -351 399 -269 27 12 55 28 61 36 11 12 14 9 23 -19 9 -27 17 -34 42
-36 27 -3 33 1 41 25 12 39 8 289 -6 340 -40 146 -221 240 -364 189z m195
-111 c99 -66 118 -201 40 -287 -44 -49 -85 -68 -145 -68 -160 0 -251 179 -158
308 60 82 178 103 263 47z"/>
<path d="M4951 3781 c-16 -29 -15 -523 1 -539 17 -17 65 -15 72 4 3 9 6 86 6
173 0 143 2 161 23 201 44 89 164 115 237 53 57 -47 63 -71 64 -250 1 -138 4
-165 18 -183 15 -17 21 -18 43 -8 29 13 28 2 30 193 1 83 5 161 9 175 13 39
66 89 108 100 70 19 143 -9 181 -70 20 -32 22 -49 23 -204 1 -163 2 -170 24
-188 27 -22 57 -10 66 26 3 14 4 98 2 188 -3 148 -5 167 -26 208 -25 48 -55
78 -112 113 -28 17 -50 22 -110 22 -83 0 -122 -15 -177 -68 l-32 -30 -37 33
c-82 72 -192 88 -283 43 -25 -12 -45 -21 -45 -20 -11 43 -67 62 -85 28z"/>
<path d="M6001 3778 c-8 -17 -11 -95 -9 -277 3 -245 4 -254 24 -268 19 -12 24
-11 44 5 24 19 24 19 24 275 0 272 -3 287 -49 287 -12 0 -27 -10 -34 -22z"/>
<path d="M6232 3782 c-16 -16 -18 -41 -17 -275 1 -239 2 -258 20 -270 22 -17
52 -11 64 12 5 9 9 82 10 163 0 126 3 154 20 187 61 118 208 145 306 55 54
-50 59 -69 62 -237 2 -167 7 -187 48 -187 43 0 47 18 43 197 -3 149 -6 173
-25 209 -29 54 -82 108 -132 134 -84 42 -213 35 -282 -16 -39 -29 -49 -30 -42
-5 5 20 -20 51 -43 51 -8 0 -22 -8 -32 -18z"/>
<path d="M7111 3785 c-85 -28 -170 -121 -187 -205 -36 -182 95 -351 273 -351
70 0 106 10 162 45 l43 27 -3 -58 c-3 -75 -14 -105 -52 -146 -58 -60 -128 -78
-206 -52 -27 9 -57 25 -66 35 -33 36 -85 20 -85 -25 0 -26 31 -56 90 -87 63
-32 186 -33 246 -1 67 36 101 70 133 135 l31 61 0 309 0 308 -26 12 c-32 15
-57 1 -64 -35 l-5 -26 -45 27 c-25 15 -52 29 -60 31 -44 10 -140 8 -179 -4z
m200 -110 c82 -58 111 -161 67 -244 -35 -68 -84 -102 -156 -108 -49 -5 -68 -2
-106 17 -148 75 -137 290 18 355 49 21 131 11 177 -20z"/>
</g>
</svg>
