<?xml version="1.0" standalone="no"?>
<!DOCTYPE svg PUBLIC "-//W3C//DTD SVG 20010904//EN"
 "http://www.w3.org/TR/2001/REC-SVG-20010904/DTD/svg10.dtd">
<svg version="1.0" xmlns="http://www.w3.org/2000/svg"
 width="100.000000pt" height="100.000000pt" viewBox="0 0 100.000000 100.000000"
 preserveAspectRatio="xMidYMid meet">
<metadata>
Created by potrace 1.11, written by Peter Selinger 2001-2013
</metadata>
<g transform="translate(0.000000,100.000000) scale(0.100000,-0.100000)"
fill="#000000" stroke="none">
<path d="M0 815 l0 -185 35 0 c35 0 49 -16 19 -22 -12 -2 -7 -13 21 -46 l37
-42 34 42 c25 32 30 44 19 46 -29 6 -15 22 20 22 19 0 35 -2 35 -4 0 -2 -14
-18 -30 -36 -17 -18 -39 -45 -49 -59 l-19 -27 54 -59 c30 -32 54 -60 54 -62 0
-1 -18 -3 -40 -3 -42 0 -56 16 -19 22 20 3 18 7 -19 48 -45 50 -37 52 -93 -22
l-20 -28 20 0 c12 0 21 -4 21 -10 0 -5 -18 -10 -40 -10 l-40 0 0 -190 0 -190
500 0 500 0 0 500 0 500 -500 0 -500 0 0 -185z m911 -175 c65 -36 65 -215 -1
-250 -58 -31 -110 28 -110 123 0 102 50 159 111 127z m-480 -97 c10 -10 21
-30 24 -45 l7 -28 -86 0 c-93 0 -101 -6 -61 -45 28 -29 79 -33 113 -9 28 19
45 8 18 -12 -52 -38 -135 -24 -161 27 -39 75 11 145 94 134 19 -2 43 -12 52
-22z m139 11 c0 -14 2 -14 22 0 31 22 74 20 98 -4 16 -16 20 -33 20 -85 0 -51
3 -65 15 -65 8 0 15 -4 15 -10 0 -5 -18 -10 -40 -10 -22 0 -40 5 -40 10 0 6 7
10 15 10 13 0 15 12 13 67 -3 64 -5 68 -31 77 -21 8 -35 7 -55 -5 -24 -13 -27
-21 -30 -77 -2 -51 0 -62 13 -62 8 0 15 -4 15 -10 0 -5 -18 -10 -40 -10 -22 0
-40 5 -40 10 0 6 7 10 15 10 12 0 15 15 15 75 0 60 -3 75 -15 75 -8 0 -15 5
-15 10 0 6 11 10 25 10 16 0 25 -6 25 -16z"/>
<path d="M835 600 c-18 -35 -20 -135 -2 -170 9 -17 22 -26 44 -28 27 -3 34 2
47 27 20 38 21 133 1 171 -12 23 -22 30 -45 30 -23 0 -33 -7 -45 -30z"/>
<path d="M316 529 c-14 -11 -26 -25 -26 -30 0 -5 34 -9 75 -9 41 0 75 4 75 9
0 16 -52 51 -75 51 -12 0 -34 -9 -49 -21z"/>
<path d="M0 505 c0 -58 4 -105 9 -105 5 0 28 25 51 55 l42 54 -43 51 c-23 27
-46 50 -51 50 -4 0 -8 -47 -8 -105z"/>
</g>
</svg>
